Coordinates
version=1
nRows=42
nColumns=38
inDegrees=no

Units are S.I. units (second, meters, Newtons, ...)
If the header above contains a line with 'inDegrees', this indicates whether rotational values are in degrees (yes) or radians (no).

endheader
time	pelvis_tilt	pelvis_list	pelvis_rotation	pelvis_tx	pelvis_ty	pelvis_tz	hip_flexion_r	hip_adduction_r	hip_rotation_r	knee_angle_r	ankle_angle_r	subtalar_angle_r	mtp_angle_r	hip_flexion_l	hip_adduction_l	hip_rotation_l	knee_angle_l	ankle_angle_l	subtalar_angle_l	mtp_angle_l	lumbar_extension	lumbar_bending	lumbar_rotation	arm_flex_r	arm_add_r	arm_rot_r	elbow_flex_r	pro_sup_r	wrist_flex_r	wrist_dev_r	arm_flex_l	arm_add_l	arm_rot_l	elbow_flex_l	pro_sup_l	wrist_flex_l	wrist_dev_l
0	0.548606	1.4274	0.912743	0.664199	-0.70247	0.967273	0.1873	0.0330667	-0.2828	0.326334	0.149311	0	0	0.0386588	-0.0510722	-0.246379	0	0.0288193	0	0	-0.171178	0.136537	0.146137	-0.292761	-0.396567	0.0473475	1.36236	1.5708	0	0	-0.208713	-0.231161	0.193764	1.26237	1.53091	0	0
0.01	0.579101	1.4317	0.888666	0.663574	-0.701697	0.967413	0.179201	0.0323321	-0.288379	0.325851	0.151473	0	0	0.0318605	-0.0511044	-0.241016	0	0.030109	0	0	-0.171385	0.138728	0.140704	-0.29619	-0.395544	0.0425099	1.36463	1.5708	0	0	-0.213232	-0.228306	0.183247	1.26977	1.53287	0	0
0.02	0.615192	1.43618	0.858053	0.663047	-0.700804	0.967576	0.170297	0.0321919	-0.29291	0.325008	0.153309	0	0	0.024007	-0.0515224	-0.236969	0	0.0316247	0	0	-0.172206	0.140888	0.135939	-0.299424	-0.393672	0.0370734	1.36635	1.5708	0	0	-0.218276	-0.224669	0.171479	1.27776	1.53273	0	0
0.03	0.658831	1.44279	0.823696	0.662557	-0.70068	0.967896	0.161168	0.0358431	-0.289748	0.326206	0.150418	0	0	0.0229665	-0.0526794	-0.232463	0	0.03406	0	0	-0.176205	0.141137	0.129999	-0.302699	-0.390378	0.0308884	1.36833	1.5708	0	0	-0.221777	-0.222072	0.161249	1.28661	1.53874	0	0
0.04	0.696519	1.44699	0.79076	0.662121	-0.699872	0.968053	0.152818	0.0354915	-0.293957	0.325623	0.152457	0	0	0.0158581	-0.0528657	-0.229065	0	0.035172	0	0	-0.177161	0.142729	0.125043	-0.304713	-0.387654	0.025438	1.37073	1.5708	0	0	-0.227926	-0.21869	0.150095	1.29579	1.54328	0	0
0.05	0.730806	1.45113	0.760636	0.661629	-0.698997	0.96815	0.145434	0.0348606	-0.297175	0.325562	0.154492	0	0	0.00926863	-0.0524991	-0.226236	0	0.0365485	0	0	-0.177747	0.14366	0.120206	-0.306495	-0.384921	0.0200349	1.37399	1.5708	0	0	-0.233787	-0.215527	0.139827	1.30518	1.5406	0	0
0.06	0.765728	1.4553	0.729176	0.661309	-0.69823	0.968276	0.138068	0.0340815	-0.299637	0.32567	0.156424	0	0	0.00248911	-0.0518651	-0.22398	0	0.0377687	0	0	-0.17837	0.144154	0.115967	-0.308103	-0.382134	0.0146907	1.37773	1.5708	0	0	-0.239077	-0.212409	0.129584	1.31494	1.52659	0	0
0.07	0.799998	1.45893	0.698102	0.660992	-0.697402	0.968383	0.131144	0.0334967	-0.301763	0.32553	0.158071	0	0	-0.00374007	-0.0513552	-0.222138	0	0.0392352	0	0	-0.17835	0.144719	0.111642	-0.30918	-0.37885	0.00839783	1.38174	1.5708	0	0	-0.244332	-0.209707	0.12089	1.3247	1.51271	0	0
0.08	0.836215	1.46234	0.664563	0.660757	-0.69671	0.968522	0.124208	0.0330612	-0.303602	0.32527	0.15979	0	0	-0.0100708	-0.0509732	-0.220523	0	0.0408019	0	0	-0.178315	0.145192	0.107799	-0.310045	-0.375286	0.00130262	1.38612	1.5708	0	0	-0.249163	-0.207476	0.113534	1.33393	1.50093	0	0
0.09	0.872205	1.46612	0.630439	0.660503	-0.695781	0.96864	0.117708	0.032033	-0.304731	0.325789	0.161669	0	0	-0.016631	-0.0501129	-0.218941	0	0.0412822	0	0	-0.178632	0.144955	0.104778	-0.310014	-0.371548	-0.00592894	1.39127	1.5708	0	0	-0.253724	-0.206003	0.107861	1.34298	1.49298	0	0
0.1	0.901957	1.46922	0.601767	0.660362	-0.694985	0.968729	0.112619	0.0309728	-0.304993	0.326789	0.163374	0	0	-0.0221001	-0.0491497	-0.218176	0	0.0418414	0	0	-0.177895	0.144579	0.102004	-0.309663	-0.368517	-0.010628	1.39645	1.5708	0	0	-0.257951	-0.204832	0.102323	1.35208	1.4808	0	0
0.11	0.930263	1.47156	0.574128	0.660243	-0.694225	0.968792	0.108241	0.0302519	-0.3054	0.328067	0.165281	0	0	-0.0269154	-0.0485999	-0.21781	0	0.043087	0	0	-0.176499	0.144551	0.0991585	-0.308991	-0.366253	-0.0136525	1.40169	1.5708	0	0	-0.261624	-0.203597	0.0966734	1.36148	1.46401	0	0
0.12	0.961602	1.47368	0.542966	0.660242	-0.693398	0.968882	0.10373	0.0297583	-0.30571	0.329198	0.16696	0	0	-0.0319717	-0.0483009	-0.217701	0	0.0440162	0	0	-0.175355	0.144723	0.0965793	-0.30843	-0.364821	-0.0159896	1.40785	1.5708	0	0	-0.265451	-0.202974	0.0916144	1.3715	1.44765	0	0
0.13	0.993796	1.47569	0.510087	0.660225	-0.692567	0.968982	0.0993423	0.0295025	-0.305003	0.330077	0.168205	0	0	-0.0370793	-0.04807	-0.218266	0	0.0447012	0	0	-0.174608	0.144807	0.094721	-0.307237	-0.363706	-0.0182658	1.41415	1.5708	0	0	-0.269165	-0.20301	0.0868956	1.38179	1.43335	0	0
0.14	1.02695	1.47764	0.476118	0.660231	-0.691819	0.969087	0.0948758	0.0292686	-0.303674	0.330818	0.16953	0	0	-0.0422115	-0.047692	-0.218932	0	0.04555	0	0	-0.174119	0.144847	0.0930575	-0.306082	-0.36287	-0.0201774	1.42096	1.5708	0	0	-0.272328	-0.203509	0.0822292	1.39229	1.41428	0	0
0.15	1.06119	1.47914	0.440692	0.660276	-0.690998	0.969166	0.0904786	0.0293529	-0.302487	0.331347	0.170744	0	0	-0.0471804	-0.0476214	-0.220099	0	0.0467586	0	0	-0.173716	0.145245	0.0916232	-0.304617	-0.362909	-0.0209313	1.42776	1.5708	0	0	-0.275493	-0.204637	0.0779726	1.40338	1.39593	0	0
0.16	1.0951	1.48005	0.404566	0.660475	-0.690125	0.969221	0.0862742	0.0299079	-0.300796	0.331739	0.171771	0	0	-0.0520083	-0.0479266	-0.222522	0	0.0482394	0	0	-0.173275	0.145934	0.09086	-0.302822	-0.363763	-0.0201498	1.43432	1.5708	0	0	-0.278572	-0.206249	0.0733208	1.41443	1.37699	0	0
0.17	1.1291	1.48073	0.367202	0.660903	-0.689046	0.969262	0.0819495	0.0307871	-0.298144	0.331417	0.172813	0	0	-0.0570416	-0.0483294	-0.225988	0	0.0492353	0	0	-0.172811	0.146663	0.0913669	-0.301147	-0.364954	-0.0188785	1.44079	1.5708	0	0	-0.281929	-0.208476	0.0688818	1.42561	1.35976	0	0
0.18	1.14943	1.48114	0.344644	0.660986	-0.688406	0.969309	0.0789937	0.0314141	-0.295678	0.331311	0.173398	0	0	-0.0605604	-0.0486026	-0.227979	0	0.0500522	0	0	-0.170954	0.147222	0.0910699	-0.299352	-0.365834	-0.0180581	1.44607	1.5708	0	0	-0.283953	-0.211295	0.0641576	1.43534	1.34973	0	0
0.19	1.16929	1.48139	0.322548	0.661333	-0.687301	0.969274	0.0759188	0.031904	-0.294802	0.330754	0.174506	0	0	-0.0639357	-0.0488017	-0.229784	0	0.0511064	0	0	-0.168564	0.148103	0.0905209	-0.297289	-0.36736	-0.0169534	1.45084	1.5708	0	0	-0.286131	-0.214833	0.0604	1.44539	1.33823	0	0
0.2	1.17805	1.48137	0.311379	0.661508	-0.686878	0.969313	0.0742883	0.0324304	-0.292414	0.330835	0.174843	0	0	-0.0660268	-0.0489576	-0.231646	0	0.0522254	0	0	-0.165468	0.148687	0.0889966	-0.293167	-0.369547	-0.013512	1.45395	1.5708	0	0	-0.287775	-0.21874	0.0560946	1.45434	1.32781	0	0
0.21	1.19527	1.48138	0.291168	0.661669	-0.685942	0.969299	0.0717905	0.0331844	-0.289937	0.330554	0.175529	0	0	-0.0689439	-0.0492441	-0.234368	0	0.0533742	0	0	-0.164418	0.149788	0.0912392	-0.292324	-0.371075	-0.01394	1.45958	1.5708	0	0	-0.286559	-0.222606	0.0530729	1.46097	1.33369	0	0
0.22	1.20758	1.48143	0.276077	0.661959	-0.685118	0.969301	0.0695681	0.0336862	-0.287862	0.330181	0.17632	0	0	-0.071475	-0.0493376	-0.236729	0	0.0543685	0	0	-0.162392	0.15049	0.0915605	-0.289895	-0.373319	-0.0105011	1.46224	1.5708	0	0	-0.286327	-0.226877	0.0506166	1.46642	1.33223	0	0
0.23	1.2213	1.48149	0.259661	0.662245	-0.684342	0.969318	0.067151	0.0343293	-0.285662	0.329388	0.176778	0	0	-0.074081	-0.0494867	-0.238884	0	0.055339	0	0	-0.160804	0.151205	0.0921964	-0.288421	-0.375727	-0.00642988	1.46417	1.5708	0	0	-0.285774	-0.23193	0.0511543	1.46918	1.33318	0	0
0.24	1.23557	1.48148	0.242767	0.662524	-0.683563	0.969342	0.0645818	0.0350431	-0.283509	0.328364	0.177044	0	0	-0.0766498	-0.0496894	-0.241035	0	0.056269	0	0	-0.159378	0.151989	0.0930608	-0.287807	-0.378108	-0.00277105	1.46625	1.5708	0	0	-0.284662	-0.237317	0.0540861	1.46923	1.34	0	0
0.25	1.24678	1.48135	0.229472	0.662806	-0.682779	0.969361	0.0620163	0.0357817	-0.281973	0.327033	0.177069	0	0	-0.078932	-0.0499762	-0.242713	0	0.0571795	0	0	-0.157438	0.152795	0.0934759	-0.287287	-0.380062	-0.000518432	1.46834	1.5708	0	0	-0.282465	-0.242406	0.0576321	1.46771	1.34699	0	0
0.26	1.26133	1.48117	0.21268	0.663125	-0.681718	0.969351	0.0591809	0.0366187	-0.280907	0.32551	0.177415	0	0	-0.0815334	-0.0503436	-0.244509	0	0.0580125	0	0	-0.155758	0.153761	0.0941328	-0.286686	-0.382119	0.000742884	1.47144	1.5708	0	0	-0.27968	-0.24707	0.0619638	1.46563	1.35326	0	0
0.27	1.27832	1.48095	0.193679	0.663352	-0.680962	0.969401	0.0562256	0.0374959	-0.279406	0.324287	0.177788	0	0	-0.0842503	-0.0507847	-0.246245	0	0.0589307	0	0	-0.154842	0.154723	0.0945569	-0.286075	-0.384159	0.00174658	1.47592	1.5708	0	0	-0.276612	-0.251284	0.0666698	1.46435	1.35826	0	0
0.28	1.29587	1.48072	0.174228	0.663605	-0.680221	0.969444	0.053191	0.0383114	-0.278072	0.323122	0.178215	0	0	-0.0870275	-0.0512122	-0.247977	0	0.0598565	0	0	-0.15412	0.155597	0.0944239	-0.284802	-0.386703	0.0047865	1.48077	1.5708	0	0	-0.274343	-0.255131	0.0704736	1.46513	1.35957	0	0
0.29	1.31198	1.48049	0.156479	0.663846	-0.679501	0.969477	0.0503061	0.0391459	-0.276817	0.321857	0.178391	0	0	-0.0896406	-0.0516441	-0.249567	0	0.0605353	0	0	-0.15336	0.156371	0.0934577	-0.282854	-0.389481	0.0088121	1.48562	1.5708	0	0	-0.27327	-0.258549	0.072756	1.4684	1.35871	0	0
0.3	1.33138	1.48018	0.135507	0.664096	-0.6788	0.969544	0.0469291	0.0401728	-0.275204	0.320113	0.178264	0	0	-0.0925717	-0.052164	-0.251327	0	0.0616412	0	0	-0.153005	0.157236	0.0916215	-0.279987	-0.392991	0.0143048	1.49098	1.5708	0	0	-0.273845	-0.26112	0.0724063	1.47357	1.35958	0	0
0.31	1.33154	1.48013	0.133625	0.664338	-0.678111	0.969501	0.0460253	0.0403739	-0.274055	0.31984	0.178838	0	0	-0.0936592	-0.0521225	-0.252874	0	0.0621982	0	0	-0.150667	0.157556	0.0900967	-0.277264	-0.395614	0.0185453	1.49598	1.5708	0	0	-0.274895	-0.263053	0.0714891	1.4776	1.36037	0	0
0.32	1.33551	1.47991	0.127935	0.664593	-0.677455	0.969484	0.044692	0.0408376	-0.272711	0.319364	0.179333	0	0	-0.0951079	-0.0523372	-0.254307	0	0.0627254	0	0	-0.148775	0.158059	0.088235	-0.27315	-0.398779	0.0241579	1.50138	1.5708	0	0	-0.276723	-0.264022	0.0682943	1.48099	1.36437	0	0
0.33	1.33823	1.47982	0.123645	0.664793	-0.676829	0.969452	0.0435626	0.0410815	-0.271557	0.319062	0.17983	0	0	-0.0963353	-0.0523846	-0.255803	0	0.0635986	0	0	-0.146858	0.15837	0.0863575	-0.268202	-0.401668	0.0298186	1.50751	1.5708	0	0	-0.278167	-0.264465	0.0644258	1.48319	1.36464	0	0
0.34	1.34281	1.47987	0.117722	0.665021	-0.676272	0.969452	0.0423326	0.0412796	-0.270339	0.318772	0.180228	0	0	-0.0977019	-0.0523802	-0.256497	0	0.0639964	0	0	-0.145228	0.158422	0.0845705	-0.262601	-0.40402	0.0340481	1.5141	1.5708	0	0	-0.279189	-0.264714	0.0605349	1.48483	1.36219	0	0
0.35	1.35096	1.47978	0.108276	0.665299	-0.675752	0.969481	0.0408153	0.0417993	-0.268957	0.318364	0.18044	0	0	-0.0994482	-0.0526374	-0.256093	0	0.0638232	0	0	-0.144012	0.15852	0.0835153	-0.257171	-0.405858	0.0361724	1.52135	1.5708	0	0	-0.279839	-0.265023	0.0575958	1.48669	1.35986	0	0
0.36	1.35672	1.47957	0.101143	0.665544	-0.675235	0.969505	0.0395883	0.0423881	-0.267502	0.317961	0.180543	0	0	-0.100873	-0.0529325	-0.256268	0	0.0639479	0	0	-0.141982	0.158579	0.0839026	-0.252984	-0.407174	0.0355791	1.52754	1.5708	0	0	-0.279016	-0.265888	0.0567059	1.4875	1.35757	0	0
0.37	1.36058	1.47938	0.0959038	0.665792	-0.674753	0.969506	0.0386644	0.0428718	-0.266178	0.317817	0.180591	0	0	-0.102016	-0.0531485	-0.257052	0	0.0644823	0	0	-0.139973	0.158531	0.0846484	-0.249428	-0.408175	0.0340462	1.53144	1.5708	0	0	-0.27762	-0.266814	0.0557229	1.48807	1.35393	0	0
0.38	1.36638	1.47933	0.0889596	0.666007	-0.674324	0.969507	0.0376741	0.0431416	-0.265141	0.317862	0.180873	0	0	-0.10329	-0.0532355	-0.257893	0	0.064786	0	0	-0.138907	0.158426	0.0855387	-0.246864	-0.409274	0.0334205	1.53307	1.5708	0	0	-0.27573	-0.267726	0.0548779	1.48892	1.34933	0	0
0.39	1.37484	1.47942	0.0794722	0.666203	-0.673968	0.969535	0.0366028	0.043164	-0.264524	0.318242	0.181251	0	0	-0.104744	-0.0531928	-0.25861	0	0.0649398	0	0	-0.138195	0.158118	0.0864001	-0.244456	-0.410586	0.0358781	1.53163	1.5708	0	0	-0.272969	-0.268628	0.0544136	1.48962	1.34427	0	0
0.4	1.3829	1.47958	0.0704992	0.666374	-0.673632	0.969562	0.0356057	0.0431843	-0.263831	0.318545	0.181663	0	0	-0.106089	-0.0530919	-0.259365	0	0.0650136	0	0	-0.137497	0.157724	0.0869095	-0.240967	-0.412015	0.0412153	1.52767	1.5708	0	0	-0.269936	-0.270153	0.0555591	1.49134	1.32004	0	0
0.41	1.38756	1.47958	0.0650851	0.666529	-0.673328	0.969579	0.0349199	0.0433399	-0.26314	0.3187	0.181808	0	0	-0.107037	-0.0531079	-0.259997	0	0.0651472	0	0	-0.136678	0.157605	0.0873338	-0.23664	-0.412828	0.0455216	1.52266	1.5708	0	0	-0.267085	-0.271125	0.0551766	1.49229	1.31658	0	0
